<?xml version="1.0" encoding="UTF-8" standalone="no"?>
<!DOCTYPE svg PUBLIC "-//W3C//DTD SVG 1.1//EN" "http://www.w3.org/Graphics/SVG/1.1/DTD/svg11.dtd">
<svg width="100%" height="100%" viewBox="0 0 256 256" version="1.1" xmlns="http://www.w3.org/2000/svg" xmlns:xlink="http://www.w3.org/1999/xlink" xml:space="preserve" xmlns:serif="http://www.serif.com/" style="fill-rule:evenodd;clip-rule:evenodd;stroke-linecap:round;stroke-linejoin:round;stroke-miterlimit:1.5;">
    <g transform="matrix(1,0,0,1,-306,0)">
        <rect id="Artboard2" x="306" y="0" width="256" height="256" style="fill:none;"/>
        <g id="Artboard21" serif:id="Artboard2">
            <g transform="matrix(0.632175,-0.632175,0.537316,0.537316,108.629,316.057)">
                <ellipse cx="434" cy="128" rx="27.934" ry="82.093" style="fill:none;stroke:white;stroke-width:7.23px;"/>
            </g>
            <g transform="matrix(0.939851,-0.939851,0.798825,0.798825,-49.8433,407.583)">
                <ellipse cx="434" cy="128" rx="27.934" ry="82.093" style="fill:none;stroke:white;stroke-width:4.86px;"/>
            </g>
            <g transform="matrix(0.537316,-0.537316,0.537316,0.537316,130.145,290.553)">
                <path d="M368.636,119.17L381.176,144.25L356.096,144.25L368.636,119.17Z" style="fill:white;"/>
            </g>
            <g transform="matrix(0.798825,-0.798825,0.798825,0.798825,-17.8553,369.667)">
                <path d="M368.636,119.17L381.176,144.25L356.096,144.25L368.636,119.17Z" style="fill:white;"/>
            </g>
            <g transform="matrix(0.537316,-0.537316,0.537316,0.537316,200.644,220.055)">
                <path d="M368.636,119.17L381.176,144.25L356.096,144.25L368.636,119.17Z" style="fill:white;"/>
            </g>
            <g transform="matrix(0.798825,-0.798825,0.798825,0.798825,86.9547,264.857)">
                <path d="M368.636,119.17L381.176,144.25L356.096,144.25L368.636,119.17Z" style="fill:white;"/>
            </g>
            <g transform="matrix(0.632175,-0.632175,0.537316,0.537316,73.3109,351.375)">
                <ellipse cx="434" cy="128" rx="27.934" ry="82.093" style="fill:none;stroke:white;stroke-width:7.23px;"/>
            </g>
            <g transform="matrix(0.939851,-0.939851,0.798825,0.798825,-102.35,460.09)">
                <ellipse cx="434" cy="128" rx="27.934" ry="82.093" style="fill:none;stroke:white;stroke-width:4.86px;"/>
            </g>
            <g transform="matrix(0.440821,-0.440821,0.440821,0.440821,186.476,263.127)">
                <circle cx="434" cy="127.757" r="58.507" style="fill:rgb(112,196,255);"/>
            </g>
        </g>
    </g>
</svg>
