<?xml version="1.0" encoding="UTF-8" standalone="no"?>
<!DOCTYPE svg PUBLIC "-//W3C//DTD SVG 1.1//EN" "http://www.w3.org/Graphics/SVG/1.1/DTD/svg11.dtd">
<svg width="100%" height="100%" viewBox="0 0 64 64" version="1.1" xmlns="http://www.w3.org/2000/svg" xmlns:xlink="http://www.w3.org/1999/xlink" xml:space="preserve" xmlns:serif="http://www.serif.com/" style="fill-rule:evenodd;clip-rule:evenodd;stroke-linecap:round;stroke-linejoin:round;stroke-miterlimit:1.5;">
    <rect id="lightbulb_light" x="0" y="0" width="64" height="64" style="fill:none;"/>
    <g id="lightbulb_light1" serif:id="lightbulb_light">
        <g transform="matrix(0.793174,0,0,0.793174,6.88993,6.86821)">
            <circle cx="31.658" cy="31.685" r="30.258" style="fill:white;"/>
        </g>
        <path d="M32,8C45.246,8 56,18.754 56,32C56,45.246 45.246,56 32,56C18.754,56 8,45.246 8,32C8,18.754 18.754,8 32,8ZM44.655,47.483C41.206,50.306 36.799,52 32,52C27.201,52 22.794,50.306 19.345,47.483L32,34.828L44.655,47.483ZM16.517,19.345L29.172,32L16.517,44.655C13.694,41.206 12,36.799 12,32C12,27.201 13.694,22.794 16.517,19.345ZM47.483,19.345C50.306,22.794 52,27.201 52,32C52,36.799 50.306,41.206 47.483,44.655L34.828,32L47.483,19.345ZM44.655,16.517L32,29.172L19.345,16.517C22.794,13.694 27.201,12 32,12C36.799,12 41.206,13.694 44.655,16.517Z"/>
        <g transform="matrix(1.00804,0,0,1.00804,-0.0939116,-0.0939116)">
            <g transform="matrix(0.133519,0.133519,-0.518216,0.518216,18.5695,-14.3811)">
                <path d="M0.683,31.792L64.052,31.792" style="fill:none;stroke:black;stroke-width:7.42px;"/>
            </g>
            <g transform="matrix(-0.133519,0.133519,-0.518216,-0.518216,78.057,18.5695)">
                <path d="M0.683,31.792L64.052,31.792" style="fill:none;stroke:black;stroke-width:7.42px;"/>
            </g>
            <g transform="matrix(0.133519,0.133519,-0.518216,0.518216,69.4137,36.4631)">
                <path d="M0.683,31.792L64.052,31.792" style="fill:none;stroke:black;stroke-width:7.42px;"/>
            </g>
            <g transform="matrix(-0.133519,0.133519,-0.518216,-0.518216,27.2128,69.4137)">
                <path d="M0.683,31.792L64.052,31.792" style="fill:none;stroke:black;stroke-width:7.42px;"/>
            </g>
        </g>
    </g>
</svg>
